<?xml version="1.0" encoding="utf-8"?>
<!-- Generator: Adobe Illustrator 24.0.1, SVG Export Plug-In . SVG Version: 6.00 Build 0)  -->
<svg version="1.1" id="Layer_1" xmlns="http://www.w3.org/2000/svg" xmlns:xlink="http://www.w3.org/1999/xlink" x="0px" y="0px"
	 viewBox="0 0 801.6 438.7" style="enable-background:new 0 0 801.6 438.7;" xml:space="preserve">
<style type="text/css">
	.st0{fill:#1a1a2e;}
	.st1{fill:#FF6900;}
</style>
<polygon class="st0" points="148.7,174.4 148.7,382.4 93.4,382.4 93.4,174.4 47.9,174.4 47.9,122 194.6,122 194.6,174.4 "/>
<path class="st0" d="M686.8,122h-94.3l-29.6,29.6v201.9l29.3,28.9h94.6l29.6-28.9V151.6L686.8,122z M660.5,330.2h-41.9V174.4h41.9
	V330.2z"/>
<polygon class="st0" points="494.3,174.4 494.3,382.4 439.1,382.4 439.1,174.4 393.5,174.4 393.5,122 540.2,122 540.2,174.4 "/>
<g>
	<polygon class="st1" points="564.9,48.5 368.5,48.6 416.6,96.7 516.8,96.7 	"/>
</g>
<path class="st0" d="M341,122h-94.3l-29.6,29.6v100.6v100.6l29.6,29.6H341l29.6-29.6V252.2V151.6L341,122z M314.9,330.2H273V174.4
	h41.9V330.2z"/>
<g>
	<path class="st0" d="M746.9,122.5c-9.8,0-18.1,7.9-18.1,17.8s8.2,17.8,18.1,17.8c9.8,0,18-7.9,18-17.8S756.7,122.5,746.9,122.5z
		 M746.8,154.5c-7.8,0-14.1-6.3-14.1-14.1c0-7.8,6.4-14.1,14.1-14.1c7.7,0,14.2,6.3,14.2,14.1C761,148.1,754.6,154.5,746.8,154.5z"
		/>
	<path class="st0" d="M752.2,133.1l-2-2h-8.8v18.6h3.9v-7.9h3v7.9h3.8v-7.9l-1.6-1.7l1.6-1.7V133.1z M748.4,138.5h-3v-4.2h3V138.5z"
		/>
</g>
</svg>
