<svg width="95" height="32" viewBox="0 0 95 32" fill="none" xmlns="http://www.w3.org/2000/svg">
<g clip-path="url(#clip0_8103_23036)">
<path d="M18.1779 1.88479C18.0725 0.747392 17.2419 0.0429688 16.0113 0.0429688C15.9059 0.0429688 15.7713 0.0452128 15.6195 0.0646555C14.5968 0.191781 13.826 0.870032 13.3901 2.02164C13.0791 2.83673 13.0395 3.63014 13.038 3.71764L13.0156 4.23287C12.8691 4.46842 12.7547 4.72118 12.6769 4.98889C12.4623 5.72173 12.1962 6.91596 12.1551 8.4295L12.1446 8.82658C11.9338 9.11822 11.7469 9.44949 11.5936 9.81142C11.4 10.2623 11.2452 10.72 11.0927 11.3167L10.9858 9.18402C10.9701 8.35247 10.3361 3.14258 9.82325 1.36582C9.61467 0.637466 8.91639 0.186546 8.00803 0.186546C7.57068 0.186546 7.09594 0.280769 6.70419 0.451267C4.67141 1.32469 4.83888 3.87617 5.26053 5.24538L5.40557 5.71799C5.38763 5.84736 5.3809 5.97673 5.38314 6.10983C5.40408 6.96531 5.6007 7.8522 6.03582 9.51455L6.1659 10.0148C6.06946 10.2825 6.01413 10.5622 6.00068 10.8464C5.97152 11.5396 5.99021 12.256 6.056 12.9843C5.97825 12.9656 5.90274 12.9507 5.82947 12.9402C5.79732 12.9335 5.76368 12.9305 5.72705 12.9267C5.60967 12.9095 5.51248 12.9013 5.41604 12.8983H5.34875C5.28296 12.8983 5.22764 12.9013 5.18652 12.905L5.18129 12.9073H5.17231C5.13568 12.9073 5.06541 12.9095 4.98242 12.9208C4.9099 12.9305 4.85607 12.9417 4.81719 12.9514H4.81495C4.74916 12.9649 4.64375 12.9866 4.52263 13.0292C4.34844 13.092 4.19966 13.163 4.06509 13.2505L4.04416 13.2625L4.0307 13.2715L4.01874 13.2812L4.00005 13.2947C3.53578 13.6401 3.07973 14.035 2.8689 14.5756C2.72012 14.9555 2.68872 15.3885 2.77545 15.9045C2.73732 15.9022 2.6977 15.9015 2.65957 15.9015C2.27604 15.9015 1.8955 16.0002 1.52692 16.1946C1.15685 16.3898 0.939296 16.6672 0.74641 16.9132L0.68062 16.9962C-0.0430756 17.9078 0.336715 19.1925 0.687348 20.0809L0.694076 20.0966C0.69931 20.1101 0.704543 20.1205 0.706038 20.1288C0.73071 20.1931 0.754633 20.2604 0.780052 20.3269L0.736691 21.0575C0.704543 21.6827 0.957986 22.417 1.29516 23.3151C1.38189 23.5454 1.48057 23.8064 1.50599 23.9163C1.90372 25.5024 2.57509 26.7497 3.50812 27.6306L3.53353 31.149C3.53353 31.3068 3.66362 31.4354 3.82361 31.4354H15.1209C15.2726 31.4264 15.3938 31.3016 15.3938 31.149C15.3938 31.1423 15.3938 31.1356 15.3915 31.1281C15.3915 31.1213 15.3915 31.1146 15.3893 31.1071L14.854 27.3562L14.8331 27.2081C15.6203 26.1231 16.2034 24.5916 16.5189 22.761C17.0064 19.9373 16.7828 16.7375 15.9238 14.1718C16.0704 13.3657 16.3088 12.2335 16.5615 11.0363L16.572 10.9937C16.7051 10.3633 16.8397 9.71271 16.9638 9.10774C17.0191 8.83779 17.0737 8.56709 17.1282 8.29564C17.1813 8.03242 17.2314 7.76919 17.2815 7.50372C17.3338 7.24125 17.3817 6.98027 17.4303 6.72228C17.5148 6.26837 17.6022 5.77781 17.7009 5.2237C17.7854 4.74436 17.8654 4.2897 17.9364 3.87318L17.9499 3.79017C18.0172 3.41403 18.0762 3.06855 18.13 2.76644C18.151 2.66025 18.1629 2.56155 18.1734 2.46358C18.1854 2.3387 18.1921 2.21232 18.1914 2.09417C18.1891 2.02164 18.1861 1.94835 18.1794 1.8803V1.88255L18.1779 1.88479ZM17.6882 2.42245C17.6792 2.5092 17.6673 2.59594 17.6501 2.69241C17.591 3.01621 17.5267 3.39085 17.4564 3.80139C17.3839 4.21791 17.3062 4.67033 17.2209 5.14892C17.1365 5.62825 17.0468 6.13152 16.9503 6.64526C16.9017 6.90324 16.8539 7.16422 16.8038 7.42521C16.7537 7.68843 16.7013 7.95091 16.6505 8.21263C16.5974 8.48259 16.5414 8.75105 16.486 9.021C16.3597 9.63943 16.2221 10.296 16.0853 10.9473C15.8199 12.2036 15.5687 13.3949 15.4237 14.2122C16.2924 16.7308 16.5242 19.885 16.039 22.6877C15.716 24.5602 15.1194 26.0685 14.3254 27.0892L14.374 27.425L14.8779 30.9651H14.2252L13.6989 27.5185L13.6952 27.5207C13.2623 27.7914 12.8077 27.9649 12.4025 28.0771C12.3457 28.0935 12.2882 28.1077 12.2313 28.1212C12.2799 28.104 12.3248 28.0875 12.3711 28.0666C13.9254 27.3906 15.0274 24.8997 15.4192 21.9429C15.4506 21.7036 15.4782 21.4613 15.4992 21.2175C15.5096 21.1091 15.5179 21.0007 15.5268 20.8915C15.5448 20.6373 15.5582 20.3838 15.565 20.1258C15.565 20.1205 15.5672 20.116 15.5672 20.1108C15.6263 18.1232 15.3683 16.054 14.7254 14.2668C14.8428 13.5736 15.0521 12.5543 15.2816 11.4603C15.2936 11.4012 15.307 11.3399 15.3198 11.2793C15.3721 11.0333 15.4229 10.788 15.4775 10.539C15.5156 10.3543 15.5553 10.1659 15.5949 9.98267C15.6704 9.61176 15.7466 9.24758 15.8192 8.89462C15.8745 8.62691 15.9291 8.35696 15.9814 8.0885C15.9866 8.06756 15.9904 8.04812 15.9948 8.02718C16.0412 7.78714 16.0883 7.54411 16.1347 7.30556C16.1847 7.04458 16.2333 6.78659 16.2797 6.53084C16.3051 6.40222 16.3283 6.2751 16.3522 6.15021C16.3746 6.02159 16.3971 5.89596 16.4195 5.77183C16.4442 5.63498 16.4681 5.50113 16.492 5.36802C16.513 5.25585 16.5301 5.14742 16.5511 5.03899C16.5892 4.82213 16.6251 4.60901 16.6632 4.40262C16.7066 4.14164 16.7507 3.89038 16.7933 3.65333C16.8621 3.25625 16.9234 2.89656 16.9802 2.58248C16.9839 2.56603 16.9854 2.54509 16.9892 2.52864C16.9982 2.4763 17.0071 2.42021 17.0116 2.36113C17.0153 2.32075 17.0183 2.28112 17.0221 2.23925C17.0243 2.19886 17.0243 2.15624 17.0243 2.11511C17.0243 2.10165 17.0221 2.08445 17.0221 2.07099C17.0198 2.04332 17.0198 2.01715 17.0168 1.98799C16.9825 1.6268 16.8113 1.28132 16.2864 1.19383L16.255 1.19084C16.181 1.17887 16.1018 1.17438 16.0128 1.17438H16.0091C15.935 1.17438 15.8535 1.17663 15.7713 1.18635C15.162 1.26188 14.7889 1.72476 14.5609 2.23551C14.5362 2.29009 14.5146 2.34394 14.4936 2.39778C14.4645 2.47331 14.4368 2.55257 14.4129 2.62585C14.3905 2.70363 14.3695 2.77841 14.3508 2.85169C14.3217 2.96162 14.2985 3.06855 14.2821 3.16651C14.2753 3.20614 14.2686 3.24129 14.2611 3.27644C14.2521 3.32878 14.2454 3.37963 14.2387 3.4245C14.232 3.48582 14.2252 3.53742 14.22 3.58602C14.2163 3.62341 14.2133 3.65632 14.211 3.68249V3.68922C14.2088 3.71464 14.2073 3.73334 14.2058 3.74755V3.764C14.2387 3.75203 14.2731 3.74306 14.3082 3.73334C14.3531 3.72362 14.3957 3.71165 14.4428 3.70118C14.5235 3.68623 14.608 3.67277 14.6917 3.6608C14.7209 3.65781 14.7508 3.65183 14.7792 3.64884C14.7897 3.64884 14.8002 3.64659 14.8106 3.64659C14.9415 3.63313 15.0715 3.62491 15.1956 3.62491H15.2338C15.2457 3.62491 15.2592 3.62715 15.2719 3.62715C15.3183 3.62715 15.3639 3.6294 15.405 3.63014C15.4513 3.63313 15.4962 3.63687 15.5381 3.64211V3.86944C15.5381 3.86944 15.5313 3.87168 15.5276 3.87243H15.5238C14.7067 3.97787 14.0271 4.53199 13.8013 5.29922C13.7527 5.46823 13.7012 5.6634 13.6503 5.88176C13.6369 5.9356 13.6249 5.99393 13.6107 6.05076C13.5105 6.51364 13.4171 7.07075 13.3655 7.70937C13.3468 7.94866 13.3333 8.19992 13.3244 8.4609C13.45 8.38612 13.6129 8.32929 13.7841 8.28293C13.7909 8.28068 13.7961 8.27994 13.8021 8.27994C13.8058 8.27769 13.8111 8.27695 13.8125 8.27695C13.8768 8.26049 13.9404 8.2418 14.0077 8.22759C14.0996 8.2089 14.1886 8.19693 14.2821 8.18497V8.18272C14.3964 8.16926 14.5063 8.16104 14.614 8.15505C14.6394 8.15281 14.6671 8.14982 14.694 8.14832C14.7374 8.14832 14.7897 8.14159 14.8308 8.14159V8.41454C14.8256 8.41454 14.8099 8.41678 14.7874 8.41977C14.7553 8.42202 14.703 8.42875 14.6372 8.4437C14.5714 8.45567 14.4906 8.47661 14.3994 8.50502C14.2043 8.56634 14.0174 8.65084 13.8462 8.75628C13.684 8.85499 13.5352 8.97015 13.3984 9.10027L13.3946 9.10251C13.1793 9.31189 12.9991 9.56016 12.8638 9.83311C12.8414 9.87872 12.819 9.92658 12.7995 9.96995C12.7876 9.99388 12.7771 10.0148 12.7674 10.038C12.736 10.1038 12.7076 10.1719 12.6777 10.2399C12.6313 10.3498 12.5842 10.4613 12.5408 10.5757C12.5154 10.6467 12.4908 10.7185 12.4653 10.791C12.4496 10.8337 12.4362 10.8755 12.422 10.9197C12.4115 10.9518 12.401 10.984 12.3906 11.0184C12.3696 11.0842 12.3495 11.1522 12.3285 11.2233C12.3181 11.2569 12.3076 11.2928 12.2986 11.3294C12.2777 11.4005 12.259 11.473 12.2396 11.5515C12.2209 11.6173 12.2029 11.6906 12.1865 11.7632C12.182 11.7796 12.1775 11.7968 12.173 11.8148C12.1483 11.9202 12.1229 12.0286 12.099 12.1416C12.0855 12.2059 12.0713 12.2724 12.0556 12.3382C12.0399 12.4227 12.0213 12.5095 12.0026 12.5992C11.9921 12.6508 11.9816 12.6994 11.9734 12.7518C11.9211 13.0127 11.8657 13.2969 11.8112 13.6072C11.6071 13.7568 11.4067 13.9265 11.2138 14.0985L11.2049 14.1075C11.1114 14.1943 11.0179 14.281 10.9282 14.3685C10.7264 14.5652 10.5372 14.7611 10.372 14.9413C10.2075 15.1223 10.0647 15.2868 9.95259 15.4184C9.78512 15.6151 9.68868 15.7407 9.68494 15.7407L9.62588 15.722L9.41505 15.6577C9.5085 15.5051 9.60196 15.3526 9.68644 15.209C9.91297 14.8359 10.0909 14.5375 10.0909 14.5375L9.82101 9.22141C9.82101 9.18626 9.81877 9.13168 9.81578 9.05989C9.81204 9.02624 9.81054 8.98511 9.80681 8.94248C9.80157 8.87892 9.79484 8.80564 9.78587 8.72413C9.71709 7.96512 9.54589 6.52486 9.34029 5.10106C9.32683 5.01431 9.31487 4.92757 9.30067 4.84008C9.29169 4.77577 9.28272 4.71295 9.273 4.64789C9.25955 4.55891 9.24534 4.47366 9.23338 4.38691C9.22291 4.3226 9.21245 4.25979 9.20198 4.19697C9.19002 4.11397 9.17432 4.03096 9.16236 3.94796C9.15862 3.9345 9.15712 3.91954 9.15563 3.90384C9.14217 3.8141 9.12423 3.72586 9.11077 3.63912C9.07937 3.45067 9.04648 3.26597 9.01508 3.09173C8.99938 3.01022 8.98368 2.92946 8.96872 2.85169C8.95078 2.76046 8.93433 2.67222 8.91639 2.58622C8.90742 2.54659 8.90069 2.50845 8.89172 2.46882C8.88125 2.42171 8.87303 2.37908 8.86406 2.33496C8.84836 2.26467 8.83266 2.20111 8.8192 2.1368C8.8035 2.06875 8.7878 2.0007 8.77285 1.93863C8.7549 1.87282 8.73995 1.81375 8.72276 1.75542C8.71603 1.72701 8.70706 1.69934 8.70033 1.67242C8.68986 1.63876 8.6779 1.6096 8.6622 1.58118C8.59791 1.47126 8.48801 1.40022 8.34895 1.36059C8.24652 1.32993 8.12915 1.31647 8.00803 1.31647C7.82487 1.31647 7.62974 1.34712 7.45853 1.389C7.35536 1.41742 7.25967 1.44808 7.17668 1.48547C6.46046 1.79281 6.21599 2.48677 6.16964 3.17399C6.16441 3.2727 6.16067 3.37066 6.16067 3.46563C6.16291 3.65856 6.17637 3.84701 6.1973 4.01975C6.20852 4.09976 6.21823 4.17529 6.2302 4.24782C6.23244 4.25754 6.23244 4.26951 6.23468 4.28147C6.25711 4.42056 6.28103 4.54619 6.3057 4.64789C6.31916 4.70697 6.33337 4.76305 6.34383 4.80568C6.3543 4.84307 6.36252 4.87373 6.3685 4.89541C6.37523 4.91635 6.37972 4.92607 6.37972 4.92757C6.38196 4.92533 6.38346 4.92533 6.38421 4.92458C6.4642 4.87074 6.54943 4.81839 6.64737 4.76979C6.97408 4.59854 7.39573 4.46468 7.88916 4.46468H7.93402L7.92056 4.60078L7.9086 4.73763C7.69329 4.73763 7.48919 4.78698 7.30901 4.87373C7.27462 4.88868 7.24023 4.90738 7.20659 4.92832C7.14453 4.96346 7.08547 5.0031 7.03239 5.04722C6.86343 5.18406 6.73035 5.36204 6.64737 5.56394C6.58158 5.72547 6.54494 5.90195 6.55092 6.08815C6.55989 6.45233 6.60774 6.83221 6.70643 7.3265C6.75502 7.57327 6.81857 7.84622 6.89333 8.16328C6.91801 8.25676 6.94193 8.35546 6.96735 8.45866C7.02641 8.69795 7.0937 8.9552 7.16921 9.24011C7.51984 9.10401 7.96168 9.01502 8.27419 8.96342C8.47081 8.93127 8.61809 8.91407 8.66295 8.91182L8.72724 9.23562C8.71528 9.23786 8.70482 9.23861 8.69285 9.24085H8.68612C8.64799 9.24758 8.60837 9.25581 8.57024 9.26478C8.55828 9.26777 8.54557 9.27002 8.53585 9.27151C8.23606 9.34405 7.96617 9.48837 7.74861 9.6828C7.74338 9.68953 7.73665 9.69252 7.73067 9.69776C7.71198 9.71645 7.69254 9.73739 7.67385 9.75608C7.65591 9.77328 7.63946 9.78824 7.62151 9.80768C7.61628 9.81441 7.61105 9.82114 7.60357 9.82862C7.34639 10.1173 7.18416 10.4882 7.16846 10.8912C7.16846 10.8942 7.16846 10.8957 7.16621 10.901V10.9032C7.16397 10.9615 7.16322 11.0169 7.16098 11.0744C7.15874 11.1186 7.15724 11.1664 7.15575 11.2105C7.15575 11.2689 7.15575 11.3257 7.1535 11.3818C7.1535 11.4289 7.15126 11.4753 7.15126 11.5209C7.1535 11.577 7.15351 11.6293 7.15425 11.6832C7.15425 11.7303 7.15425 11.7774 7.1565 11.8237L7.16023 11.9793C7.16248 12.0264 7.16323 12.0757 7.16696 12.1221C7.16696 12.1737 7.1707 12.2223 7.17369 12.2717C7.17593 12.3188 7.17743 12.3659 7.18042 12.4145C7.18266 12.4639 7.18715 12.511 7.19089 12.5603C7.19313 12.6052 7.19612 12.6515 7.19986 12.6972C7.2036 12.7465 7.20883 12.7914 7.21182 12.84C7.21705 12.8841 7.22079 12.9297 7.22528 12.9716C7.22902 13.021 7.23201 13.0681 7.23873 13.1174C7.24247 13.1578 7.24771 13.1989 7.2507 13.2378C7.25593 13.2834 7.26116 13.3276 7.2664 13.3717C7.27163 13.4121 7.27686 13.4547 7.28209 13.4958C7.28733 13.5362 7.29256 13.5773 7.2978 13.6177C7.30303 13.6581 7.30826 13.7007 7.31574 13.7418C7.32097 13.7815 7.3262 13.8196 7.33368 13.857C7.33891 13.8974 7.34415 13.9385 7.35163 13.9774C7.35835 14.0125 7.36359 14.0499 7.36957 14.0858C7.3763 14.1232 7.38302 14.1613 7.38826 14.1995C7.39723 14.2503 7.4062 14.2997 7.41368 14.349C7.41891 14.37 7.42041 14.3894 7.42564 14.4104C7.46227 14.6138 7.49965 14.7985 7.53479 14.9577L7.46227 14.9084L7.34639 14.8329C7.23948 14.7618 7.13781 14.7035 7.03314 14.6429C7.02417 14.6362 7.0152 14.631 7.00772 14.6265C6.97333 14.6048 6.9367 14.5824 6.90231 14.5622C6.89558 14.5592 6.88885 14.5532 6.88137 14.5502L6.87763 14.5472C6.85221 14.5337 6.8253 14.5218 6.79988 14.5068C6.73783 14.4732 6.67578 14.441 6.61447 14.4081C6.55242 14.3775 6.49186 14.349 6.43355 14.3214C6.41561 14.3124 6.39916 14.3079 6.38121 14.2997C6.25487 14.2436 6.13151 14.1943 6.01264 14.1561C6.00591 14.1539 6.00068 14.1531 5.99469 14.1509C5.97899 14.1456 5.9633 14.1419 5.94834 14.1374C5.83844 14.1038 5.72854 14.0783 5.62836 14.0619C5.61939 14.0596 5.61042 14.0589 5.60369 14.0589C5.59696 14.0589 5.59173 14.0567 5.585 14.0559C5.51099 14.0469 5.44146 14.0395 5.37268 14.0372C5.37043 14.035 5.36744 14.035 5.36595 14.035H5.34128C5.32558 14.035 5.30913 14.0372 5.29119 14.038C5.27549 14.0402 5.25979 14.0402 5.24259 14.041C5.2082 14.0432 5.17007 14.0432 5.13718 14.0477C5.11176 14.0499 5.08484 14.0567 5.06167 14.0626C5.01158 14.0716 4.96149 14.0813 4.91663 14.0978C4.8785 14.1112 4.84262 14.1255 4.80972 14.1419C4.77533 14.1569 4.74318 14.1771 4.70954 14.198C4.64225 14.2473 4.56824 14.3012 4.49497 14.3625C4.43965 14.4066 4.38507 14.456 4.32975 14.5053C4.16751 14.6534 4.02248 14.8172 3.95893 14.9817C3.87819 15.1888 3.87445 15.4543 3.93127 15.7684C3.94173 15.8207 3.94996 15.8745 3.96342 15.9299C3.98883 16.0398 4.02248 16.1535 4.05986 16.2754C4.07855 16.3344 4.09948 16.3958 4.12191 16.4586C4.16677 16.5835 4.21761 16.7128 4.27218 16.8482C4.35517 17.0478 4.45011 17.2587 4.55403 17.4786C4.58842 17.5511 4.62506 17.6244 4.66094 17.7014C4.70206 17.6917 4.74393 17.6827 4.78505 17.6737C4.8942 17.6498 5.00036 17.6281 5.10578 17.6057H5.10802C5.13568 17.6027 5.16035 17.5967 5.18802 17.5922C5.22913 17.5855 5.271 17.5788 5.31212 17.5713C5.40782 17.5548 5.50201 17.5406 5.59547 17.5309H5.59771C5.60668 17.5287 5.61565 17.5279 5.62313 17.5279C5.76069 17.5115 5.90199 17.5025 6.04105 17.4958C6.05451 17.4958 6.06647 17.4958 6.07918 17.4935C6.1046 17.4935 6.12927 17.4935 6.15469 17.4913H6.25786C6.33785 17.4913 6.41635 17.4935 6.49635 17.4958C6.50532 17.4958 6.61373 17.501 6.62045 17.501C6.7625 17.5107 6.90604 17.5227 7.05557 17.5436L7.0922 17.5489C7.10566 17.5511 7.11687 17.5519 7.12883 17.5533C7.30303 17.5788 7.48096 17.6117 7.6731 17.6521C7.6731 17.6521 7.55722 16.8317 7.08248 16.1041C7.06454 16.0765 7.04585 16.0458 7.02566 16.0196L7.08099 16.0077L7.34191 15.9553C7.3905 15.9994 7.4376 16.045 7.48171 16.0944C7.55722 16.1759 7.63198 16.2589 7.69927 16.3457C7.7359 16.3913 7.77179 16.4391 7.80692 16.4847C7.83234 16.5199 7.85926 16.5558 7.88243 16.5909C7.90038 16.6194 7.92056 16.647 7.93925 16.6739C8.33699 17.2729 8.5366 17.8412 8.5366 17.8412C8.6921 17.851 8.84985 17.8719 9.00984 17.8973C9.31188 17.9467 9.62513 18.0222 9.93614 18.1202C10.0707 18.1606 10.2038 18.2047 10.3369 18.251L14.0413 19.7429L14.0226 19.9396L14.0092 20.1071L11.4553 19.2426L10.1305 18.7939C10.1186 18.7909 10.1081 18.785 10.0984 18.782C9.93315 18.7109 9.76494 18.6534 9.59224 18.604C9.50552 18.5801 9.4143 18.5546 9.32683 18.5345C9.32459 18.5345 9.3231 18.5345 9.32235 18.5322C9.25656 18.5173 9.16909 18.5016 9.06143 18.4873C9.03601 18.4821 9.00835 18.4784 8.97844 18.4739C8.94704 18.4709 8.91265 18.4649 8.87826 18.4619C8.82294 18.4552 8.76836 18.4485 8.7108 18.4402C8.67267 18.4357 8.63529 18.4313 8.59491 18.4253C8.55828 18.4223 8.52389 18.4163 8.488 18.4133C8.41549 18.4036 8.34147 18.3924 8.26671 18.3827C8.1912 18.3737 8.11345 18.364 8.03719 18.352C7.95944 18.3423 7.88169 18.3303 7.80393 18.3183C7.50862 18.269 7.20285 18.2122 6.90081 18.1628C6.67129 18.1277 6.44102 18.097 6.21449 18.085C6.14048 18.082 6.06422 18.0783 5.99021 18.0783C5.92591 18.0783 5.86386 18.0805 5.79807 18.0835C5.41305 18.1052 5.08111 18.18 4.80673 18.2989C4.73272 18.3318 4.66169 18.3692 4.59441 18.4073C4.53759 18.4395 4.48525 18.4754 4.43591 18.5128C4.07855 18.7782 3.89389 19.1469 3.91931 19.5619C3.92977 19.7354 3.97837 19.9097 4.05687 20.0772L5.67173 20.1774C5.67546 20.1325 5.6807 20.0876 5.68369 20.0413C5.68892 19.9971 5.69714 19.9515 5.70462 19.9074C5.73677 19.7107 5.78761 19.5178 5.86237 19.3324C5.899 19.2404 5.94311 19.1529 5.99021 19.0669C6.00815 19.0392 6.02236 19.0086 6.0403 18.9824H6.4156C6.27057 19.2643 6.20029 19.5462 6.17263 19.7997C6.16067 19.9014 6.15469 19.9979 6.15469 20.0884C6.15244 20.4967 6.2444 20.7786 6.2444 20.7786L6.07693 20.7689L5.93937 20.7599L4.48002 20.6702C4.51964 20.7075 4.55927 20.7449 4.60338 20.7786C4.79551 20.9431 5.01457 21.074 5.24932 21.1585C5.31586 21.1824 5.38613 21.2033 5.45716 21.2198C5.88704 21.3163 6.36103 21.4127 6.68325 21.4568C6.79315 21.4725 6.90604 21.4785 7.01819 21.4785C7.14154 21.4785 7.26341 21.4695 7.38602 21.4568C7.42564 21.4516 7.46676 21.4471 7.50713 21.4419C7.48246 21.4112 7.46227 21.3783 7.44508 21.3454C7.40545 21.2811 7.3763 21.2146 7.35163 21.1487C7.3292 21.0807 7.312 21.0126 7.29929 20.9453C7.28733 20.881 7.2806 20.8145 7.27836 20.7532C7.27611 20.7225 7.27611 20.6918 7.27611 20.6634C7.27836 20.4294 7.3262 20.2589 7.3262 20.2589C7.42489 20.5079 7.5617 20.7247 7.70973 20.9147C7.71198 20.9177 7.71198 20.9192 7.71347 20.9214C7.94299 21.2131 8.23083 21.4538 8.54782 21.652L11.2161 23.3159L11.1039 23.443L10.6254 23.2411L10.0722 23.007C9.91372 22.939 9.74924 22.9068 9.58701 22.9068C9.3216 22.9068 9.06292 22.9913 8.85509 23.1439C8.85135 23.1469 8.84836 23.1506 8.84312 23.1558C8.8207 23.1715 8.79827 23.1895 8.77733 23.2082C8.75864 23.2216 8.74294 23.2366 8.725 23.253C8.71977 23.2598 8.71304 23.2665 8.70631 23.2717C8.62183 23.3607 8.54856 23.4579 8.49399 23.5724C8.49174 23.5768 8.48875 23.5813 8.48875 23.5858C8.47679 23.6112 8.46408 23.6374 8.45436 23.6613C8.44539 23.6823 8.43866 23.704 8.43193 23.7271C8.42969 23.7361 8.42521 23.7458 8.42147 23.7578C8.42147 23.7608 8.41922 23.7668 8.41773 23.7698C8.34222 24.0465 8.28989 24.3269 8.2712 24.6125C8.26596 24.6821 8.26222 24.7531 8.26222 24.8219C8.25998 24.8915 8.25998 24.9625 8.26222 25.0321C8.26895 25.1726 8.28091 25.314 8.30334 25.4501C8.35642 25.7926 8.46857 26.1246 8.63828 26.4229C8.67042 26.482 8.70481 26.5404 8.74519 26.5972C8.8207 26.7094 8.90592 26.8178 9.00087 26.9187C9.37393 27.3233 9.8868 27.6022 10.443 27.7735L10.7174 27.858L10.1911 29.3984C10.1873 29.4081 10.1791 29.4134 10.1701 29.4134C10.1597 29.4134 10.1492 29.4067 10.1492 29.3947L10.0191 28.3455C9.52271 28.1676 9.04648 27.9043 8.65323 27.5439C8.64949 27.5387 8.6465 27.5372 8.64426 27.5349C8.58744 27.4803 8.53436 27.4265 8.47978 27.3704C8.14111 27.0107 7.90112 26.577 7.75085 26.1208C7.6888 25.9346 7.6417 25.7425 7.61105 25.5518C7.50563 24.8907 7.56769 24.2244 7.74113 23.5948C7.75683 23.5365 7.77328 23.4774 7.79347 23.4205C7.82786 23.3054 7.86898 23.1902 7.91458 23.0781C7.95271 22.9816 7.99233 22.8881 8.0357 22.7939C8.05439 22.7513 8.07681 22.7094 8.09775 22.6653C8.13737 22.5875 8.17774 22.5105 8.2211 22.4327C8.23008 22.4163 8.2398 22.3991 8.25026 22.3819C8.27269 22.3415 8.29587 22.3004 8.32129 22.2615L8.28914 22.248L8.00953 22.0199C7.93402 22.0506 7.80094 22.088 7.66413 22.1134C7.63647 22.1164 7.61105 22.1224 7.58339 22.1254C7.5303 22.1321 7.47797 22.1373 7.43012 22.1373C7.34938 22.1373 7.26266 22.1343 7.17818 22.1276C7.13482 22.1246 7.09145 22.1209 7.04809 22.1156C6.9681 22.1067 6.88735 22.097 6.81184 22.0872C6.71615 22.0723 6.62494 22.0566 6.54195 22.0401C6.51055 22.0349 6.48289 22.0282 6.45523 22.0229C6.4657 22.1097 6.47093 22.1942 6.47093 22.2749C6.47093 22.3146 6.46869 22.3549 6.46719 22.3923C6.43729 22.8672 6.21674 23.2104 5.8833 23.4191C5.86087 23.4325 5.83994 23.4467 5.81751 23.4587C5.7577 23.4908 5.69116 23.52 5.62388 23.5432C5.5237 23.5806 5.41828 23.609 5.30614 23.6247C5.21418 23.6397 5.11624 23.6464 5.01606 23.6464H5.01232C4.81346 23.6464 4.60263 23.6247 4.3903 23.5634C2.6947 23.0631 1.90522 21.1293 1.90522 21.1293C1.89849 21.2445 1.91419 21.3836 1.94335 21.5361C1.95531 21.5974 1.96877 21.6632 1.98671 21.7283C2.00017 21.7866 2.01587 21.8434 2.03306 21.9025C2.12876 22.2345 2.26109 22.5927 2.38145 22.9128C2.49584 23.2164 2.59677 23.4879 2.64237 23.6621C3.05207 25.3042 3.72866 26.4013 4.42021 27.0616C4.56375 27.1984 4.71552 27.3128 4.85906 27.428C5.87508 28.2416 7.44059 28.2992 7.44059 28.2992L4.87925 28.3201L4.73047 30.9763H4.01874V30.9486L3.99407 27.4385C3.05282 26.6166 2.37697 25.4015 1.98073 23.8184C1.94783 23.6823 1.85289 23.4325 1.75271 23.1648C1.43497 22.319 1.19648 21.6311 1.22563 21.0957L1.27199 20.2634C1.23386 20.1736 1.19947 20.0824 1.16657 19.9889C1.16283 19.9755 1.15461 19.9538 1.1419 19.9261C0.83463 19.1447 0.489976 18.0215 1.06789 17.2954L1.13368 17.2109C1.31385 16.9835 1.48132 16.7689 1.75869 16.6231C2.05624 16.4653 2.35828 16.3883 2.65807 16.3883C2.94142 16.3883 3.21206 16.4578 3.45429 16.5947C3.18141 15.7945 3.14552 15.2135 3.3242 14.7558C3.49167 14.3259 3.8894 13.9856 4.29461 13.6828L4.3133 13.6678L4.33423 13.6558C4.43666 13.59 4.54955 13.5354 4.68636 13.4868C4.77757 13.4547 4.86056 13.4375 4.91738 13.4255L4.92784 13.4225C4.96448 13.4136 5.00186 13.4068 5.04522 13.4008C5.10428 13.3941 5.15437 13.3919 5.18652 13.3911L5.20446 13.3889H5.22315C5.26128 13.3859 5.30315 13.3836 5.34202 13.3836H5.39511C5.47809 13.3866 5.56033 13.3956 5.66799 13.4091C5.69266 13.4121 5.71658 13.4136 5.742 13.4188C5.88704 13.4427 6.04404 13.4801 6.21076 13.5339L6.22272 13.5362L6.22795 13.5384C6.34683 13.5781 6.47691 13.6274 6.61971 13.6887C6.50981 12.8684 6.43953 11.906 6.48513 10.8808C6.49709 10.5914 6.56438 10.3147 6.67279 10.0567L6.50532 9.41285C6.07918 7.7849 5.88704 6.92343 5.86685 6.11208C5.86386 5.97299 5.87582 5.83465 5.90124 5.70154L5.72481 5.12573C5.34801 3.90384 5.17381 1.63652 6.89931 0.895457C7.22602 0.754872 7.6402 0.671865 8.0043 0.671865C8.6951 0.671865 9.19899 0.982202 9.35151 1.5079C9.86213 3.28092 10.4841 8.47511 10.4954 9.21393L10.7196 13.6521C10.8752 13.5093 11.0307 13.3792 11.1794 13.2595C11.4867 11.6054 11.7035 10.7955 12.0414 10.0058C12.2037 9.62597 12.401 9.28871 12.6253 8.99857L12.641 8.45642C12.6807 6.99223 12.9363 5.83988 13.1442 5.13172C13.2219 4.86625 13.343 4.61649 13.4963 4.39215L13.521 3.75054C13.5255 3.63014 13.6608 0.799739 15.6801 0.546984C15.8064 0.530533 15.9186 0.52829 16.0068 0.52829H16.0106C16.9795 0.52829 17.6082 1.05698 17.6904 1.94237C17.6957 1.99846 17.6994 2.05753 17.6994 2.12035C17.7017 2.22055 17.6972 2.32674 17.686 2.43741V2.42918L17.6882 2.42245Z" fill="#D80D83"/>
<path d="M3.10216 17.1092C3.04907 17.0681 2.98927 17.0307 2.92123 17C2.87712 16.9791 2.82853 16.9619 2.77844 16.9477C2.72835 16.9342 2.67452 16.9238 2.61845 16.9193C2.59004 16.917 2.56163 16.9155 2.53172 16.9155C2.48911 16.9155 2.445 16.9185 2.39865 16.9245C2.37622 16.9275 2.35229 16.9312 2.32987 16.9365C2.30146 16.9417 2.27155 16.9492 2.2409 16.9582C2.14969 16.9828 2.054 17.021 1.95456 17.0733C1.93288 17.0853 1.91195 17.0972 1.89176 17.1114C1.76467 17.1982 1.66149 17.3343 1.52393 17.5093C1.50749 17.531 1.49029 17.5519 1.47235 17.5751C1.37142 17.7022 1.32208 17.8667 1.30638 18.0469C1.29367 18.2017 1.30563 18.3677 1.33179 18.5345C1.41628 19.0595 1.64579 19.5762 1.68018 19.6756C1.85214 20.1826 2.12502 20.6373 2.44126 21.0822C2.51079 21.181 2.58406 21.2789 2.65807 21.3776C2.71115 21.4472 2.76423 21.5182 2.81731 21.5885C2.86067 21.6446 2.90404 21.7014 2.94815 21.7575C3.04085 21.8779 3.1343 21.999 3.22776 22.1194C3.24645 22.1441 3.26514 22.1665 3.28383 22.189C3.29729 22.2054 3.31074 22.2226 3.3242 22.2391C3.37279 22.2982 3.42064 22.3542 3.46924 22.4081C3.49615 22.438 3.52232 22.4672 3.54923 22.4948C3.86921 22.8328 4.18919 23.0467 4.50992 23.0811C4.58394 23.0931 4.65496 23.0983 4.72225 23.0983C5.04447 23.0983 5.3039 22.9779 5.4751 22.8052C5.47734 22.8022 5.47884 22.8007 5.48108 22.7984C5.52968 22.7483 5.57079 22.693 5.60444 22.6362C5.62313 22.604 5.63808 22.5704 5.65154 22.5367C5.66499 22.5031 5.67621 22.4687 5.68369 22.435C5.76368 22.0933 5.58126 21.7194 5.03176 21.5698C5.00634 21.5623 4.97943 21.5571 4.95401 21.5534C4.92859 21.5496 4.90167 21.5481 4.87551 21.5481C4.82841 21.5481 4.78131 21.5541 4.73346 21.5638C4.61608 21.5893 4.50245 21.6446 4.39554 21.7134C4.37386 21.7268 4.35292 21.7411 4.33348 21.7553C4.19443 21.857 4.07556 21.9766 3.99108 22.0798C3.97612 22.0977 3.96267 22.1149 3.94996 22.1321L3.78548 22.0506L3.67409 21.9953C3.701 21.9452 3.74586 21.8644 3.8251 21.7553C3.8737 21.6887 3.935 21.6094 4.01425 21.5197C4.01948 21.5137 4.02397 21.5077 4.0292 21.5033C4.09799 21.4262 4.17798 21.3417 4.27368 21.249C3.78473 20.9656 3.36233 20.6171 3.17692 20.0682C3.12683 19.9187 3.09318 19.7542 3.08122 19.5732C3.07748 19.5119 3.07524 19.4498 3.07599 19.3847C3.07599 19.3212 3.07973 19.2539 3.08571 19.1851C3.09169 19.1387 3.09917 19.0909 3.11038 19.0393C3.12085 18.9877 3.13505 18.9346 3.1515 18.8807C3.16795 18.8269 3.18888 18.7708 3.21355 18.7147C3.22551 18.6871 3.23897 18.6579 3.25318 18.6302C3.28159 18.5734 3.31448 18.5158 3.35037 18.4582C3.36906 18.4298 3.38849 18.4014 3.40943 18.3737C3.47223 18.2892 3.54699 18.2055 3.63446 18.127C3.72193 18.0469 3.82286 17.9722 3.938 17.9034C3.92753 17.8862 3.91557 17.8697 3.90286 17.8533C3.71296 17.5975 3.33018 17.2872 3.1029 17.1107V17.1085L3.10216 17.1092Z" fill="#D80D83"/>
<path d="M30.1017 24.7337L25.5651 14.717C25.4881 14.5457 25.3146 14.4351 25.1233 14.4351H20.7527C20.4686 14.4351 20.2809 14.726 20.4028 14.9787L28.2244 31.1969C28.2887 31.33 28.424 31.4145 28.5743 31.4145H31.9834C32.1329 31.4145 32.269 31.33 32.3333 31.1969L40.1549 14.9787C40.2767 14.726 40.0898 14.4351 39.805 14.4351H35.4344C35.243 14.4351 35.0696 14.5457 34.9926 14.717L30.456 24.7337C30.388 24.8847 30.1704 24.8847 30.1024 24.7337H30.1017Z" fill="#D80D83"/>
<path d="M73.1946 14.0273C67.867 14.0273 63.551 18.0408 63.551 22.9927C63.551 27.9446 67.867 31.958 73.1946 31.958C77.2025 31.958 80.6401 29.6839 82.0927 26.446C82.1495 26.3204 82.0568 26.1783 81.917 26.1783H77.0672C76.9663 26.1783 76.8706 26.2187 76.7981 26.2875C75.8815 27.1564 74.6046 27.6941 73.1923 27.6941C70.9883 27.6941 69.1148 26.3832 68.424 24.5548C68.3776 24.4307 68.4704 24.2991 68.6042 24.2991H82.3955C82.5906 24.2991 82.7544 24.1555 82.7768 23.964C82.8142 23.6447 82.8336 23.3202 82.8336 22.9919C82.8336 22.3526 82.7618 21.7281 82.625 21.1269C81.7025 17.0701 77.8313 14.0273 73.1938 14.0273M68.8629 21.1269C68.7186 21.1269 68.6244 20.9736 68.6946 20.848C69.5312 19.33 71.2321 18.2905 73.1938 18.2905C75.1556 18.2905 76.8564 19.33 77.693 20.848C77.7618 20.9736 77.6676 21.1269 77.5233 21.1269H68.8621H68.8629Z" fill="#D80D83"/>
<path d="M52.3626 13.884C50.5504 13.884 48.8608 14.391 47.4328 15.2637C47.3043 15.3422 47.1383 15.2517 47.1383 15.1021V9.51983C47.1383 9.26184 46.8848 9.07789 46.6366 9.15491L42.6369 10.3865C42.4754 10.4366 42.3655 10.5839 42.3655 10.7515V31.0698C42.3655 31.2814 42.5389 31.4512 42.7527 31.4512H46.5297C46.7413 31.4512 46.914 31.2829 46.917 31.0743L46.9237 30.5912C46.926 30.4409 47.0949 30.3519 47.2228 30.4349C48.6956 31.3921 50.46 31.9567 52.3641 31.9567C57.4921 31.9567 61.6488 27.9104 61.6488 22.9203C61.6488 17.9303 57.4921 13.884 52.3641 13.884M51.938 27.6322C49.2638 27.6322 47.0964 25.5227 47.0964 22.9203C47.0964 20.318 49.2638 18.2085 51.938 18.2085C54.6122 18.2085 56.7796 20.318 56.7796 22.9203C56.7796 25.5227 54.6115 27.6322 51.938 27.6322Z" fill="#D80D83"/>
<path d="M94.5121 18.0731V14.7978C94.5121 14.5869 94.3409 14.4164 94.1294 14.4164H89.8836C89.7767 14.4164 89.693 14.3312 89.693 14.2257V9.51909C89.693 9.26185 89.4418 9.07789 89.1958 9.15491L85.1407 10.4187C84.98 10.4688 84.8716 10.6161 84.8716 10.7829V22.9345C84.8716 27.9186 88.5342 31.9574 93.8707 31.9574H94.1308C94.3424 31.9574 94.5136 31.7862 94.5136 31.5761V28.0345C94.5136 27.8363 94.3604 27.6681 94.1622 27.6546C91.6592 27.4789 89.693 25.4374 89.693 22.9345V18.6452C89.693 18.5405 89.7775 18.4545 89.8836 18.4545H94.1294C94.3409 18.4545 94.5121 18.284 94.5121 18.0731Z" fill="#D80D83"/>
</g>
<defs>
<clipPath id="clip0_8103_23036">
<rect width="94.4762" height="32" fill="white"/>
</clipPath>
</defs>
</svg>
